/* XPM */
static char *result[] = {
/* columns rows colors chars-per-pixel */
"30 31 173 2 ",
"   c black",
".  c #040000",
"X  c #080000",
"o  c #080100",
"O  c #1B0000",
"+  c #1C0C05",
"@  c #1A140C",
"#  c #151314",
"$  c #211600",
"%  c #210F19",
"&  c #3A1E1A",
"*  c #332300",
"=  c #27221B",
"-  c #21211C",
";  c #302210",
":  c #2E2D2C",
">  c #352F24",
",  c #2C372B",
"<  c #3E3425",
"1  c #3C372B",
"2  c #3C372C",
"3  c #2F3536",
"4  c #4C0000",
"5  c #701C00",
"6  c #472D0B",
"7  c #4B3600",
"8  c #5E3508",
"9  c #713900",
"0  c #563E2B",
"q  c #523C2F",
"w  c #493E31",
"e  c #665A00",
"r  c #70751B",
"t  c #4E4127",
"y  c #4F4537",
"u  c #734B21",
"i  c #7E662D",
"p  c #295240",
"a  c #555144",
"s  c #505943",
"d  c #485850",
"f  c #675440",
"g  c #665B4A",
"h  c #70644C",
"j  c #7B6E4E",
"k  c #7E7749",
"l  c #6A6C53",
"z  c #6D6D54",
"x  c #716955",
"c  c #736A56",
"v  c #746B55",
"b  c #736D56",
"n  c #796D5B",
"m  c #7D6D59",
"M  c #6F6F60",
"N  c #757860",
"B  c #77766E",
"V  c #844800",
"C  c #846519",
"Z  c #B37700",
"A  c #B57714",
"S  c #957530",
"D  c #A77D25",
"F  c #B0772B",
"G  c #A07232",
"H  c #AC7237",
"J  c #C8503C",
"K  c #88764A",
"L  c #9C7448",
"P  c #927B4A",
"I  c #997B49",
"U  c #806D54",
"Y  c #907A5D",
"T  c #B7614A",
"R  c #887C66",
"E  c #897F6B",
"W  c #C47F59",
"Q  c #C39635",
"!  c #9C8653",
"~  c #A68449",
"^  c #AB8756",
"/  c #A6A343",
"(  c #86846F",
")  c #8A856E",
"_  c #9B8364",
"`  c #8C8D77",
"'  c #958873",
"]  c #90917A",
"[  c #97917A",
"{  c #94927C",
"}  c #9B9278",
"|  c #94997D",
" . c #AA8B62",
".. c #A98C66",
"X. c #A1896A",
"o. c #A48D6D",
"O. c #BE8B6C",
"+. c #A18F70",
"@. c #A99979",
"#. c #AB9D7C",
"$. c #B99476",
"%. c #C99948",
"&. c #D29041",
"*. c #D59846",
"=. c #D1934B",
"-. c #D6A74B",
";. c #E1AD4C",
":. c #EAB852",
">. c #CC8E6D",
",. c #C09662",
"<. c #C49762",
"1. c #E1856C",
"2. c #E8957A",
"3. c #E7987D",
"4. c #D5AB62",
"5. c #DFB96F",
"6. c #CCA970",
"7. c #E0B96E",
"8. c #F7CB7E",
"9. c #B19E80",
"0. c #A7A387",
"q. c #B6A282",
"w. c #B5A584",
"e. c #B8A98C",
"r. c #BCB289",
"t. c #ADAF9E",
"y. c #B5AE90",
"u. c #B1B091",
"i. c #B9BB9C",
"p. c #B4B4A1",
"a. c #E39E82",
"s. c #CEA589",
"d. c #C6AF8A",
"f. c #CFAC8E",
"g. c #D2A385",
"h. c #D2A689",
"j. c #DFAC8E",
"k. c #C5B88A",
"l. c #DBB584",
"z. c #D0B58C",
"x. c #D4BC88",
"c. c #D5B98D",
"v. c #CEAE90",
"b. c #CBBB96",
"n. c #C6BB9A",
"m. c #CCBF9C",
"M. c #DEB999",
"N. c #E0A688",
"B. c #E9A789",
"V. c #E0B092",
"C. c #FCB694",
"Z. c #FFBB9C",
"A. c #C9C09E",
"S. c #DFC79B",
"D. c #E9C88B",
"F. c #E7C798",
"G. c #F4CF9C",
"H. c #D4C6A3",
"J. c #D8CEAA",
"K. c #D8C8AF",
"L. c #F3C9A5",
"P. c #F3CCA7",
"I. c #FFCEA9",
"U. c #ECDAB2",
"Y. c #F4D6B0",
"T. c #F1E5BB",
"R. c #DCDFC2",
"E. c #FBD7C1",
"W. c #F3EFD0",
"Q. c #FBECD0",
"!. c #F6F2DB",
"~. c #F7FBE1",
"^. c None",
/* pixels */
"^.^.^.^.^.^.^.^.^.^.^.^.^.^.^.^.^.^.^.^.^.^.^.^.^.^.^.^.^.^.",
"^.^.^.^.^.^.^.^.^.^.^.^.^.^.^.^.^.^.^.^.^.^.^.^.^.^.^.^.^.^.",
"^.^.^.^.^.^.^.^.^.^.^.^.^.^.^.^.^.^.^.^.^.^.^.^.^.^.^.^.^.^.",
"^.^.^.^.^.^.^.^.^.^.^.^.^.^.^.^.^.^.^.^.^.^.^.^.^.^.^.^.^.^.",
"^.^.^.^.^.^.^.^.^.^.^.^.^.^.^.^.^.^.^.^.^.^.^.^.^.^.^.^.^.^.",
"^.^.^.^.^.^.^.^.^.^.^.^.^.^.^.^.^.^.^.^.^.^.^.^.^.^.^.^.^.^.",
"^.^.^.^.^.^.^.^.^.^.^.^.^.^.^.^.^.^.^.^.^.^.^.^.^.^.^.^.^.^.",
"^.^.^.^.^.^.^.^.^.^.^.^.^.^.^.^.^.^.^.^.^.^.^.^.^.^.^.^.^.^.",
"^.^.^.^.^.^.^.^.^.^.^.^.^.^.^.^.^.^.^.^.^.^.^.^.^.^.^.^.^.^.",
"^.^.^.^.^.^.^.^.^.^.^.^.^.^.^.^.^.^.^.^.^.^.^.^.^.^.^.^.^.^.",
"^.^.^.^.^.^.^.^.^.^.^.O 6 i j a ^.^.^.^.^.^.^.^.^.^.^.^.^.^.",
"^.^.^.^.^.^.^.z P q 8 F %.:.D.x.C M K * ^.^.^.^.^.^.^.^.^.^.",
"^.^.^.^.^.^.l k.5.k G *.;.Z ^ 7.Q S.8.S 3 ^.^.^.^.^.^.^.^.^.",
"^.^.^.^.^.  r.,.e / D H 6.4.d.z.I A &.~ v # ^.^.^.^.^.^.^.^.",
"^.^.^.^.^.  f u r -.=.G.l.<.F.c.b. .9 . X o ^.^.^.^.^.^.^.^.",
"^.^.^.^.^.  s b & 4 L @.V 5 ..U Y R } i.t.: ^.^.^.^.^.^.^.^.",
"^.^.^.^.^.  J >.| [ ` ) ] { ( 0.y.u.U.Z.!.d ^.^.^.^.^.^.^.^.",
"^.^.^.^.^.  T O.1.V.2.j.3.N.a.B.I.C.L.E.K., ^.^.^.^.^.^.^.^.",
"^.^.^.^.^.^.p ! W $.g.v.h.f.s.M.Y.P.Q.R.h ^.^.^.^.^.^.^.^.^.",
"^.^.^.^.^.^.^.7 N +.#.w.A.n.J.T.W.~.p.0 ^.^.^.^.^.^.^.^.^.^.",
"^.^.^.^.^.^.^.^.% w m X.o._ 9.q.' B + ^.^.^.^.^.^.^.^.^.^.^.",
"^.^.^.^.^.^.^.^.^.^.- < y g x c ; ^.^.^.^.^.^.^.^.^.^.^.^.^.",
"^.^.^.^.^.^.^.^.^.^.$ t E e.m.H.n ^.^.^.^.^.^.^.^.^.^.^.^.^.",
"^.^.^.^.^.^.^.^.^.^.^.@ = > 1 2 ^.^.^.^.^.^.^.^.^.^.^.^.^.^.",
"^.^.^.^.^.^.^.^.^.^.^.^.^.^.^.^.^.^.^.^.^.^.^.^.^.^.^.^.^.^.",
"^.^.^.^.^.^.^.^.^.^.^.^.^.^.^.^.^.^.^.^.^.^.^.^.^.^.^.^.^.^.",
"^.^.^.^.^.^.^.^.^.^.^.^.^.^.^.^.^.^.^.^.^.^.^.^.^.^.^.^.^.^.",
"^.^.^.^.^.^.^.^.^.^.^.^.^.^.^.^.^.^.^.^.^.^.^.^.^.^.^.^.^.^.",
"^.^.^.^.^.^.^.^.^.^.^.^.^.^.^.^.^.^.^.^.^.^.^.^.^.^.^.^.^.^.",
"^.^.^.^.^.^.^.^.^.^.^.^.^.^.^.^.^.^.^.^.^.^.^.^.^.^.^.^.^.^.",
"^.^.^.^.^.^.^.^.^.^.^.^.^.^.^.^.^.^.^.^.^.^.^.^.^.^.^.^.^.^."
};
