/* XPM */
static char *_2e42fdd9007442cbb34a62526a516ffn08isYJNQkrZwdmf[] = {
/* columns rows colors chars-per-pixel */
"30 31 209 2 ",
"   c None",
".  c black",
"X  c #180000",
"o  c #000019",
"O  c #320200",
"+  c #3B1200",
"@  c #2F160D",
"#  c #3D362F",
"$  c #372926",
"%  c #4A0000",
"&  c #401806",
"*  c #511607",
"=  c #620000",
"-  c #691D00",
";  c #7C180F",
":  c #502911",
">  c #5E260C",
",  c #6C2F08",
"<  c #7A2802",
"1  c #72361F",
"2  c #6E3809",
"3  c #4C1D21",
"4  c #770920",
"5  c #563E2F",
"6  c #512D2D",
"7  c #643D21",
"8  c #692537",
"9  c #6D382E",
"0  c #7D431F",
"q  c #787407",
"w  c #40443D",
"e  c #50463F",
"r  c #000046",
"t  c #1A0043",
"y  c #000653",
"u  c #310440",
"i  c #320F4B",
"p  c #00006A",
"a  c #0E0065",
"s  c #000073",
"d  c #1B086F",
"f  c #290376",
"g  c #250067",
"h  c #0E257E",
"j  c #2D2067",
"k  c #3D346E",
"l  c #3B2C74",
"z  c #530049",
"x  c #4F1242",
"c  c #7B1F50",
"v  c #6F314D",
"b  c #58016E",
"n  c #521A63",
"m  c #5D2B6F",
"M  c #4D3A70",
"N  c #4A4042",
"B  c #7C4F44",
"V  c #7C5847",
"C  c #7C5951",
"Z  c #7F655E",
"A  c #525C6C",
"S  c #6E5E6F",
"D  c #694D63",
"F  c #78697D",
"G  c #7E7977",
"H  c #930000",
"J  c #850E1E",
"K  c #BA0000",
"L  c #833D01",
"P  c #993000",
"I  c #A32903",
"U  c #A63800",
"Y  c #B12702",
"T  c #9A0038",
"R  c #A50034",
"E  c #AE3F33",
"W  c #B9292B",
"Q  c #8A4600",
"!  c #934F00",
"~  c #895200",
"^  c #975900",
"/  c #AD5605",
"(  c #B55B04",
")  c #BB4E1A",
"_  c #A56604",
"`  c #B66900",
"'  c #B9611C",
"]  c #814220",
"[  c #BA522B",
"{  c #9D643B",
"}  c #BB6C25",
"|  c #BA6F31",
" . c #A17F3D",
".. c #B06D32",
"X. c #D74E02",
"o. c #E74C12",
"O. c #DF6A00",
"+. c #C67500",
"@. c #C9790C",
"#. c #CE7310",
"$. c #E16700",
"%. c #E97F00",
"&. c #E37619",
"*. c #D74627",
"=. c #D37420",
"-. c #C37831",
";. c #E96831",
":. c #8C1946",
">. c #964A49",
",. c #A5574B",
"<. c #9A785C",
"1. c #906957",
"2. c #BB7E53",
"3. c #835B63",
"4. c #806360",
"5. c #887466",
"6. c #897376",
"7. c #BD6360",
"8. c #A26D6E",
"9. c #968800",
"0. c #B18400",
"q. c #AB8600",
"w. c #AAA00D",
"e. c #B9AE07",
"r. c #BAAF26",
"t. c #DC8300",
"y. c #C2900B",
"u. c #DA9700",
"i. c #F18100",
"p. c #EA9500",
"a. c #CBB30E",
"s. c #D4823F",
"d. c #CD893D",
"f. c #F08128",
"g. c #EEB025",
"h. c #E5A73A",
"j. c #EAB235",
"k. c #D0C505",
"l. c #FFCC00",
"z. c #FDDA00",
"x. c #FAD705",
"c. c #F0CD15",
"v. c #EACF02",
"b. c #FCF500",
"n. c #FFFD00",
"m. c #FDF20D",
"M. c #FFEE14",
"N. c #F0E90A",
"B. c #E3CE2E",
"V. c #E9D83C",
"C. c #9B8375",
"Z. c #A88779",
"A. c #A99679",
"S. c #BBA076",
"D. c #CE995F",
"F. c #F1AE50",
"G. c #CCA776",
"H. c #CFB27A",
"J. c #F2B773",
"K. c #F6D25F",
"L. c #F1CB48",
"P. c #000086",
"I. c #00008A",
"U. c #15338B",
"Y. c #4F0085",
"T. c #5A1A8C",
"R. c #463EA4",
"E. c #524491",
"W. c #4A518E",
"Q. c #7C7693",
"!. c #665CA4",
"~. c #746FAC",
"^. c #904C80",
"/. c #8B579D",
"(. c #8D6593",
"). c #908C8D",
"_. c #989193",
"`. c #AC8D90",
"'. c #AE9F93",
"]. c #AB9489",
"[. c #ABA09A",
"{. c #B4A49C",
"}. c #8389A6",
"|. c #9B99A7",
" X c #BBABA7",
".X c #A6ABB8",
"XX c #B0AEB4",
"oX c #B9B7B6",
"OX c #BFB7AB",
"+X c #CFB284",
"@X c #D0B080",
"#X c #EEB988",
"$X c #C1B8BA",
"%X c #C5B8AF",
"&X c #DAC696",
"*X c #E7D19E",
"=X c #DCC2A1",
"-X c #D0C8BE",
";X c #CBC6BF",
":X c #E9D6A0",
">X c #FFEABA",
",X c #9BA4CA",
"<X c #B3B3D0",
"1X c #C8C4C2",
"2X c #C9CBD3",
"3X c #E6DFDE",
"4X c #F4EEE7",
"5X c #F5F0EF",
"6X c #FFFFF1",
/* pixels */
"                                                            ",
"                                                            ",
"                                                            ",
"                                      ~                     ",
"                      H H   9.0._ 0.u.i.P .                 ",
"                  q e.v.v.k.N.m.N.m.M.c.a.y.(               ",
"                w.v.z.l.x.b.n.n.b.x.x.b.n.n.z.p.X.          ",
"                9.r.B.g.f.g.V.V.j.L.K.F.h.F.F.f.            ",
"                P.p A A n b E.R.!.XX4X4X<X~.T.              ",
"            U.U.U.y r y u t g f l G {.-X1X_.N               ",
"            d a o ~ @.| '.1X[.d.+X;X}.x / / <               ",
"                  _ t.' C.&X#XH.>X6X2X8.-.s.]               ",
"                    e 4.6.<.} d.H.H.D.} Q >                 ",
"                    9 C.OX;X1XoX$X$X XA.B                   ",
"                    8 m W.Q.|..X<X,X,X(.D                   ",
"                    8 j b W O.$.K z I.Y.c L <               ",
"                    3 i :.*.&.=.E v ,.;.o.Y -               ",
"                  * @ + ; U ` +.` L ^ ` U = X               ",
"                V V # + ! @.} | ..0 J ) @._ ,               ",
"              1 1.G w O , { +X:X&XA.6 Y i.#.Q               ",
"                >.Z # . . : S.*X&XC.G `.7.I                 ",
"                    O $ 4.].5.7 2 6.3X5X[.                  ",
"                        C.OX}.I.W.XX%X].C                   ",
"                      @ 1 >.^./.(.3., %                     ",
"                      & 4 T R [ #.Q +                       ",
"                      i v 2.G._.W.k N                       ",
"                      f m 8.Z.Q.~. X'.S                     ",
"                        s s p p k F F M                     ",
"                                                            ",
"                                                            ",
"                                                            "
};
