/* XPM */
static char *_4a66b5e1a10402dea618d7e1a8b7913dr3IblG0cM8rDxTF[] = {
/* columns rows colors chars-per-pixel */
"30 31 197 2 ",
"   c None",
".  c #100000",
"X  c #001400",
"o  c #270000",
"O  c #280000",
"+  c #2B0000",
"@  c #2C0100",
"#  c #2F0000",
"$  c #1F143C",
"%  c #560000",
"&  c #4B1903",
"*  c #5C1700",
"=  c #551E12",
"-  c #620000",
";  c #750000",
":  c #711E00",
">  c #672000",
",  c #723802",
"<  c #401B3F",
"1  c #68222E",
"2  c #795900",
"3  c #744417",
"4  c #724828",
"5  c #70433D",
"6  c #7C573C",
"7  c #001D5E",
"8  c #381848",
"9  c #33005C",
"0  c #3D215D",
"q  c #001460",
"w  c #000078",
"e  c #001576",
"r  c #200269",
"t  c #3D176E",
"y  c #3F3663",
"u  c #383D6F",
"i  c #6C1A44",
"p  c #760058",
"a  c #432C41",
"s  c #6B3045",
"d  c #4C0065",
"f  c #510079",
"g  c #503D6C",
"h  c #78236C",
"j  c #633871",
"k  c #5C4E49",
"l  c #475A54",
"z  c #765C4F",
"x  c #644257",
"c  c #724551",
"v  c #7C644D",
"b  c #6A635D",
"n  c #7C645A",
"m  c #6C4667",
"M  c #726267",
"N  c #6E6178",
"B  c #811D00",
"V  c #9B1612",
"C  c #A70F13",
"Z  c #8F2801",
"A  c #872209",
"S  c #962E00",
"D  c #9E2800",
"F  c #A62A00",
"G  c #AC2C00",
"H  c #AF2F0A",
"J  c #BE2D07",
"K  c #B82B0D",
"L  c #A6330B",
"P  c #BC3800",
"I  c #B6350D",
"U  c #992D28",
"Y  c #A02529",
"T  c #BD3D26",
"R  c #C71E1A",
"E  c #C72300",
"W  c #C82F00",
"Q  c #D53404",
"!  c #DB300D",
"~  c #EE3101",
"^  c #8F4411",
"/  c #8C4A1D",
"(  c #935313",
")  c #BE5D00",
"_  c #AC6500",
"`  c #BA562B",
"'  c #9E6536",
"]  c #CA5400",
"[  c #CA5E00",
"{  c #DF5900",
"}  c #CB4B11",
"|  c #DE7700",
" . c #D17B05",
".. c #E7761B",
"X. c #EF732E",
"o. c #9B3674",
"O. c #8A5348",
"+. c #845B4C",
"@. c #94585E",
"#. c #B05F53",
"$. c #956E54",
"%. c #99655C",
"&. c #A56446",
"*. c #A8674B",
"=. c #A2655D",
"-. c #A87D5D",
";. c #8D5363",
":. c #8E5F69",
">. c #8C7264",
",. c #8A716F",
"<. c #917061",
"1. c #957565",
"2. c #8F7773",
"3. c #997D72",
"4. c #C66268",
"5. c #B0861D",
"6. c #A99210",
"7. c #BEAF00",
"8. c #B1AC2B",
"9. c #C6B30E",
"0. c #D9B00B",
"q. c #E88A29",
"w. c #DAC814",
"e. c #FFD100",
"r. c #F2DA18",
"t. c #FFE000",
"y. c #FFE200",
"u. c #FEE600",
"i. c #FAEE00",
"p. c #FFF600",
"a. c #FFF900",
"s. c #FFFC00",
"d. c yellow",
"f. c #F1CA26",
"g. c #FDDD20",
"h. c #A28C6F",
"j. c #BC956A",
"k. c #A68D74",
"l. c #AD8C7A",
"z. c #A39478",
"x. c #C7854E",
"c. c #DD9C41",
"v. c #D2914E",
"b. c #DA9F49",
"n. c #C2845C",
"m. c #CDB841",
"M. c #E2A155",
"N. c #D7A064",
"B. c #E2B57A",
"V. c #D5C159",
"C. c #DEC365",
"Z. c #EFC87D",
"A. c #1D0090",
"S. c #003CA2",
"D. c #4D4588",
"F. c #554588",
"G. c #57539A",
"H. c #716581",
"J. c #7E7B95",
"K. c #7372A7",
"L. c #8B768D",
"P. c #AA7592",
"I. c #7D96BD",
"U. c #868282",
"Y. c #988787",
"T. c #9C8D8D",
"R. c #928D92",
"E. c #9E9691",
"W. c #A49485",
"Q. c #AB9386",
"!. c #A38494",
"~. c #A99896",
"^. c #A89D9D",
"/. c #BBA681",
"(. c #BAA980",
"). c #B6A59B",
"_. c #B59BA3",
"`. c #B1A6A9",
"'. c #B4ADAB",
"]. c #BBAFAE",
"[. c #DC8489",
"{. c #C09783",
"}. c #C1AB88",
"|. c #DDBA8E",
" X c #E3BB86",
".X c #DECB9B",
"XX c #F2C888",
"oX c #D0C2AF",
"OX c #FDE4BC",
"+X c #FFF1B5",
"@X c #A4A7CC",
"#X c #A3B2D3",
"$X c #B4B3D9",
"%X c #C0BFC5",
"&X c #DDDBD5",
"*X c #E1DCD3",
"=X c #F0EEED",
/* pixels */
"                                                            ",
"                                                            ",
"                                                            ",
"                                                            ",
"                                                            ",
"                                                            ",
"                                                            ",
"                            2 _ ) ;                         ",
"                    6.0.9.w.r.g.f.5.(                       ",
"                  7.t.t.p.d.a.u.i.d.e.|                     ",
"                  8.m.c.b.V.C.Z.XXN.M.X.                    ",
"                S.e 7 y 9 A.G.%X=X$Xf                       ",
"              r q a 3 +.U.M ,.Y.T.l.4                       ",
"                     .x.oXB.OX*X!.[ /                       ",
"                    6 <.-.v. X|.n.^                         ",
"                  . k E.'.~.`.].Q.:                         ",
"                    1 m L.I.#X@XK.u                         ",
"                    s g N P.[.4.p o.C                       ",
"                    O i U ! E F ] ..*.h.z.                  ",
"                  n 3.#.K L = A { q.(.+X.Xz.                ",
"                - ).&X^.Y W H D P } $./.}.                  ",
"                  >.W.1.R ~ Q Z & %                         ",
"                  z x D._.%.> B I W                         ",
"                v 2.L.F.R.l X * S F #                       ",
"                V T ` , @ O o < c ' c ;.                    ",
"              8 d h =.j.b     $ 0 j @.&.O.                  ",
"                w t :.{.H.                                  ",
"                                                            ",
"                                                            ",
"                                                            ",
"                                                            "
};
