/* XPM */
static char *_54ae1f35b3340708eda1155baee9551hkISlsnBCPoJJ01w[] = {
/* columns rows colors chars-per-pixel */
"30 31 178 2 ",
"   c None",
".  c #000000",
"X  c #00000E",
"o  c #2E0F0B",
"O  c #390000",
"+  c #000027",
"@  c #393E37",
"#  c #560701",
"$  c #5C140A",
"%  c #5C1F00",
"&  c #650000",
"*  c #730000",
"=  c #651B03",
"-  c #701510",
";  c #54350C",
":  c #652A07",
">  c #653D00",
",  c #6C2B10",
"<  c #51003E",
"1  c #4D173F",
"2  c #42382F",
"3  c #762E20",
"4  c #763120",
"5  c #6B4838",
"6  c #714238",
"7  c #00006E",
"8  c #150162",
"9  c #000079",
"0  c #200665",
"q  c #501847",
"w  c #582F57",
"e  c #773E42",
"r  c #733E7B",
"t  c #795B4B",
"y  c #715655",
"u  c #4E7144",
"i  c #476844",
"p  c #724D6C",
"a  c #6E6463",
"s  c #6F6D71",
"d  c #800B00",
"f  c #9D0500",
"g  c #861B00",
"h  c #A50001",
"j  c #B50000",
"k  c #BB1200",
"l  c #812C00",
"z  c #882703",
"x  c #AA2208",
"c  c #A23F04",
"v  c #BA3800",
"b  c #8D1539",
"n  c #863F30",
"m  c #C02500",
"M  c #C02D15",
"N  c #D02D30",
"B  c #964200",
"V  c #9C4205",
"C  c #83511B",
"Z  c #8F520C",
"A  c #AD4705",
"S  c #B34605",
"D  c #AB5D00",
"F  c #BC4C14",
"G  c #A0571F",
"H  c #927800",
"J  c #A96400",
"K  c #B96A04",
"L  c #BD7402",
"P  c #B4790F",
"I  c #894230",
"U  c #9A5523",
"Y  c #A65822",
"T  c #B0572C",
"R  c #A8613A",
"E  c #CF4B01",
"W  c #D24B07",
"Q  c #C75904",
"!  c #E55402",
"~  c #C26500",
"^  c #C16F00",
"/  c #D96303",
"(  c #CB7900",
")  c #C27405",
"_  c #DA7505",
"`  c #CA641D",
"'  c #E86400",
"]  c #F86D00",
"[  c #E67200",
"{  c #F47700",
"}  c #C2502F",
"|  c #C56530",
" . c #E97631",
".. c #932F53",
"X. c #976152",
"o. c #937E5D",
"O. c #B97C47",
"+. c #A16649",
"@. c #9D576C",
"#. c #A65671",
"$. c #937E60",
"%. c #A86A69",
"&. c #AC746D",
"*. c #DB665F",
"=. c #9F8300",
"-. c #9E9C00",
";. c #A18A00",
":. c #B4BE1A",
">. c #BC953F",
",. c #D18000",
"<. c #DB9802",
"1. c #F68203",
"2. c #FB8C00",
"3. c #F78B06",
"4. c #E19C02",
"5. c #CCAB00",
"6. c #C8A300",
"7. c #D5AB00",
"8. c #DBAB00",
"9. c #E2A700",
"0. c #FCBA00",
"q. c #F3A408",
"w. c #C0933F",
"e. c #F9A92D",
"r. c #EACC00",
"t. c #FCC600",
"y. c #FFD905",
"u. c #F6EC03",
"i. c #FDE404",
"p. c #F7F401",
"a. c #FCFC02",
"s. c #FEF600",
"d. c #FFD526",
"f. c #FFFB24",
"g. c #F3FA3E",
"h. c #B0855F",
"j. c #998365",
"k. c #B28660",
"l. c #AA8B63",
"z. c #E2AC5E",
"x. c #D18977",
"c. c #D3A26B",
"v. c #D5B37E",
"b. c #F7B26A",
"n. c #EBB67B",
"m. c #FFD65F",
"M. c #D6D660",
"N. c #001D9F",
"B. c #0E3585",
"V. c #003794",
"C. c #00379D",
"Z. c #5A0086",
"A. c #621485",
"S. c #6F3F8E",
"D. c #356393",
"F. c #6E438F",
"G. c #72538C",
"H. c #767695",
"J. c #636DA7",
"K. c #827EA1",
"L. c #978B85",
"P. c #A18182",
"I. c #A88BB3",
"U. c #ADADA8",
"Y. c #B8B5B2",
"T. c #C09E8F",
"R. c #DAB882",
"E. c #FBB68E",
"W. c #E5ACA7",
"Q. c #F9D8BC",
"!. c #A6A6C4",
"~. c #AAB3CF",
"^. c #AFB4D2",
"/. c #D3D2CF",
"(. c #D4D2D0",
"). c #EDF3F2",
"_. c #F6F0F2",
"`. c #FFF0F2",
/* pixels */
"                                                            ",
"                                                            ",
"                                                            ",
"                                                            ",
"                                                            ",
"                              H =.                          ",
"                    f 6.7.f -.p.r.j 8.7.h                   ",
"                    c <.i.u.p.a.p.i.y.4.V                   ",
"                  m ' 0.s.a.s.a.p.t.t.t./ #                 ",
"                    n Y $.M.f.g.d.*.@.G I                   ",
"                  . R.j.u k.l.D.&.>.u $.R..                 ",
"                    O.3 5.9.=.:.;.9.7.3 O.                  ",
"                    X 4 %.%.z.m.z.%.%.5 .                   ",
"                  U.H.H./.)._.`._.).(.K.p J                 ",
"                ; W.I.N.J.U.~.~.^.!.J.N.#.[ >               ",
"              # _ { W ..S.F.A.Z.A.S.r b W 3._ %             ",
"              , S W , j { e. .N  .e.1.k l v S ,             ",
"            : K ( S 4 a X.| { 1.2.1.! x - T ( ~ =           ",
"            , &.k.l L.Y.U.s z F A x h g 4 +.O.k.=           ",
"            , n.b.C @ t t 2 Z L L P ` M o G b.R.=           ",
"              B Y ; O = > z E ' / ! ] / q w U c             ",
"                  . Q 3.q._ * X # x.Q.E.} 9 7               ",
"                  = K ) L A d   d &.Y.U.D q                 ",
"                  $ K ( v &       & j _ L #                 ",
"                    q R c.j.      $.c.R q                   ",
"                  0 V.G.P.a .     s P.G.C.8                 ",
"                    B.V.7 +       + 7 V.B.8                 ",
"                                                            ",
"                                                            ",
"                                                            ",
"                                                            "
};
