/* XPM */
static char *cba0b7adc79c492cfa14e9bd8a77b62cKpJC2GorGJXLF5qW[] = {
/* columns rows colors chars-per-pixel */
"30 31 176 2 ",
"   c None",
".  c #010001",
"X  c #1F0002",
"o  c #011A00",
"O  c #000010",
"+  c #1E1014",
"@  c #280000",
"#  c #360200",
"$  c #2B1100",
"%  c #000037",
"&  c #18003D",
"*  c #22003D",
"=  c #211B3F",
"-  c #343123",
";  c #4C0F00",
":  c #510301",
">  c #5A0001",
",  c #590A00",
"<  c #4E1502",
"1  c #5B1800",
"2  c #690300",
"3  c #610000",
"4  c #730000",
"5  c #7B0000",
"6  c #631B00",
"7  c #671A00",
"8  c #741401",
"9  c #721C01",
"0  c #532608",
"q  c #642301",
"w  c #6E2B04",
"e  c #68210F",
"r  c #752E02",
"t  c #7E2700",
"y  c #643A09",
"u  c #763303",
"i  c #793A19",
"p  c #4F1F3F",
"a  c #413020",
"s  c #713337",
"d  c #7D5700",
"f  c #4D4237",
"g  c #674B27",
"h  c #6F4936",
"j  c #0A0F4B",
"k  c #230A4F",
"l  c #002043",
"z  c #230B68",
"x  c #201369",
"c  c #311961",
"v  c #013162",
"b  c #382973",
"n  c #620543",
"m  c #512340",
"M  c #49355D",
"N  c #6F584C",
"B  c #796D54",
"V  c #535479",
"C  c #6F6D6F",
"Z  c #606E7D",
"A  c #911700",
"S  c #8D2A03",
"D  c #8E2601",
"F  c #982801",
"G  c #863900",
"H  c #863101",
"J  c #9E3000",
"K  c #8E2F1A",
"L  c #A42E00",
"P  c #A62800",
"I  c #A63500",
"U  c #A93300",
"Y  c #B23F00",
"T  c #BA3E01",
"R  c #C23503",
"E  c #D23B07",
"W  c #C82600",
"Q  c #E23F00",
"!  c #975701",
"~  c #87451B",
"^  c #885600",
"/  c #AA4100",
"(  c #AD5B04",
")  c #B05E00",
"_  c #B85C02",
"`  c #A7571A",
"'  c #AE6000",
"]  c #BB6901",
"[  c #BB6503",
"{  c #854825",
"}  c #A25A39",
"|  c #956237",
" . c #A96839",
".. c #D54503",
"X. c #C55F00",
"o. c #D4431D",
"O. c #C36601",
"+. c #C96600",
"@. c #D96701",
"#. c #C37600",
"$. c #D27901",
"%. c #E26501",
"&. c #E46C02",
"*. c #EB6C01",
"=. c #8F425D",
"-. c #90445E",
";. c #8E654A",
":. c #926D4E",
">. c #AB7A47",
",. c #A46957",
"<. c #A97251",
"1. c #93686A",
"2. c #9C7B6C",
"3. c #897976",
"4. c #C77D5F",
"5. c #A78000",
"6. c #C99600",
"7. c #F38B00",
"8. c #FA8A05",
"9. c #EA9700",
"0. c #FA9800",
"q. c #D3A100",
"w. c #C8BA00",
"e. c #ECBB00",
"r. c #F7B400",
"t. c #DBCA01",
"y. c #F9C902",
"u. c #EED400",
"i. c #FBD803",
"p. c #F9EA02",
"a. c #F8F703",
"s. c #8F8A57",
"d. c #AE875C",
"f. c #B78D5C",
"g. c #9C8866",
"h. c #9A9D78",
"j. c #B7976C",
"k. c #A5857B",
"l. c #AB9371",
"z. c #B09277",
"x. c #98A278",
"c. c #C49767",
"v. c #DE967A",
"b. c #E3AF74",
"n. c #003B96",
"m. c #4D3F8C",
"M. c #314C95",
"N. c #0050A1",
"B. c #4C4F93",
"V. c #605E88",
"C. c #676988",
"Z. c #4966A8",
"A. c #5771B2",
"S. c #A87880",
"D. c #5A8EBC",
"F. c #6C83A2",
"G. c #87888C",
"H. c #9A878A",
"J. c #AA8E8A",
"K. c #B4968B",
"L. c #BCAB9B",
"P. c #949CB8",
"I. c #C9AE83",
"U. c #C0ADA5",
"Y. c #DFC69B",
"T. c #CEC396",
"R. c #FEC989",
"E. c #E3CA99",
"W. c #EFD4A3",
"Q. c #EFE6A1",
"!. c #849EC8",
"~. c #88A2C9",
"^. c #B5C2D9",
"/. c #C8C7C9",
"(. c #CFCCD4",
"). c #C4D0ED",
/* pixels */
"                          6 3                               ",
"                    q 3   d 5.^   > > q                     ",
"                  8 / 6.W X.u.w.5 #.q.Y 8                   ",
"                    I 9.r.y.a.a.t.u.9.U                     ",
"                  H #.r.a.a.a.a.i.p.e.$.Q                   ",
"                  t &.y.a.p.u.i.r.p.y.*.U                   ",
"                    , s s.Q.E.x.T.h.s >                     ",
"                  - B = B.).~.V ^.A.k B -                   ",
"                  a f.g l Z j @ C l g f.-                   ",
"                    y f G.k g.g.k G.f y                     ",
"                    . N (.m.E.Y.m.(.N .                     ",
"                  1 m 2.k.J.W.W.J.k.2.m :                   ",
"                q k M./.z.j.d.d.j.z./.Z.3.|                 ",
"                2 n N.~./.U.L P U./.~.Z.S.K                 ",
"              u [ @.-.n.D.P.o.o.P.D.n.-.@.O.u               ",
"              q ] &.I M 1.,.E E ,.1.M I &.] q               ",
"              ] _ F 8 / 7.@.L U &.7./ e F _ [               ",
"            r ) _ S : ..8.&.I U &.8...: S _ ) w             ",
"            6 h ,.} ; P *.*.Q Q *.&.L ; } <.h 7             ",
"            e I.E.:.2 D 4 8 4 4 8 5 S 2 :.E.I.e             ",
"            { b.c.w 9 T ( S ^ ! S ! R 8 w c.b.{             ",
"            ~ ` 9 # r %.@./ *.&./ %.%.w : t ` ~             ",
"                < O F 7.%.P A A P &.7.Y 9 q                 ",
"                  0 v.R.R.4.. . @.0.0.Y 9                   ",
"                  i K.U.L.3.+ $ ! #.' 9 q                   ",
"                  r ` ` K O     . D ( ( r                   ",
"                  G ] +.I @     X F +.] G                   ",
"                     .>.0 .     . o >. .                    ",
"                  z 1.J.v %     % v H.1.z                   ",
"                  z V.F.C.x     x C.F.V.z                   ",
"                  b H.l.;.c     c ;.l.H.b                   "
};
