/* XPM */
static char *d3597fe4a5c147c1cd5c9c646962cfee8emf0EEhjLwQnsYJ[] = {
/* columns rows colors chars-per-pixel */
"30 31 152 2 ",
"   c None",
".  c black",
"X  c #000004",
"o  c #1F0000",
"O  c #1B0900",
"+  c #450000",
"@  c #410D02",
"#  c #5D0000",
"$  c #541E00",
"%  c #581C00",
"&  c #6D0C0A",
"*  c #5E2300",
"=  c #532800",
"-  c #6E2100",
";  c #7D2400",
":  c #52182C",
">  c #681D2B",
",  c #4D2F26",
"<  c #713034",
"1  c #703834",
"2  c #7D5013",
"3  c #79453A",
"4  c #754A38",
"5  c #000054",
"6  c #00005A",
"7  c #00005C",
"8  c #000062",
"9  c #000065",
"0  c #00006C",
"q  c #1D0665",
"w  c #10096E",
"e  c #000074",
"r  c #000075",
"t  c #33096A",
"y  c #2B0073",
"u  c #6E0B6F",
"i  c #56544F",
"p  c #574F53",
"a  c #830003",
"s  c #9C1500",
"d  c #8B0013",
"f  c #A60002",
"g  c #9F3100",
"h  c #A52600",
"j  c #AA3500",
"k  c #B83800",
"l  c #8C3C29",
"z  c #C62E23",
"x  c #8F571E",
"c  c #A44700",
"v  c #BC5901",
"b  c #BC5D08",
"n  c #A36A00",
"m  c #A9670C",
"M  c #BF6100",
"N  c #B56B00",
"B  c #B96800",
"V  c #8D4D2C",
"C  c #A64C21",
"Z  c #B27030",
"A  c #CB4D03",
"S  c #C56F00",
"D  c #D26900",
"F  c #D27C0D",
"G  c #C07514",
"H  c #E26600",
"J  c #E46A00",
"K  c #E87C04",
"L  c #C56031",
"P  c #C67930",
"I  c #962E75",
"U  c #825652",
"Y  c #AB5C44",
"T  c #95644B",
"R  c #886B5F",
"E  c #8E7258",
"W  c #98745D",
"Q  c #B5604D",
"!  c #AF7146",
"~  c #A6705B",
"^  c #86516B",
"/  c #8C7365",
"(  c #8A7470",
")  c #B07A6B",
"_  c #AE7774",
"`  c #9F8B0C",
"'  c #A79C0B",
"]  c #A09531",
"[  c #CF9706",
"{  c #EA9D1B",
"}  c #D6AD0F",
"|  c #C2B500",
" . c #F4B400",
".. c #DB863D",
"X. c #D2C10F",
"o. c #FFDC00",
"O. c #FFDE00",
"+. c #ECD317",
"@. c #FEE100",
"#. c #FFF000",
"$. c #FFF600",
"%. c #F9F900",
"&. c yellow",
"*. c #9A8B7D",
"=. c #A39072",
"-. c #AD9978",
";. c #C18042",
":. c #E79A53",
">. c #DAA84C",
",. c #E8A354",
"<. c #D3A562",
"1. c #DCB365",
"2. c #C6A37C",
"3. c #D6C245",
"4. c #D6CD62",
"5. c #000097",
"6. c #032680",
"7. c #16338B",
"8. c #002A94",
"9. c #0044A3",
"0. c #786F8B",
"q. c #787B98",
"w. c #8D4E88",
"e. c #928084",
"r. c #96918C",
"t. c #AF9587",
"y. c #A89A8E",
"u. c #B39D8C",
"i. c #B49E8F",
"p. c #989FAC",
"a. c #8892BD",
"s. c #A29EAB",
"d. c #BCABA0",
"f. c #B7B1AE",
"g. c #C58F86",
"h. c #C29780",
"j. c #C3AA8B",
"k. c #C3AA92",
"l. c #D2B595",
"z. c #F0BF8A",
"x. c #CAA3B0",
"c. c #DEC697",
"v. c #F5DA87",
"b. c #EDD39E",
"n. c #CAC4BC",
"m. c #FFEAB9",
"M. c #AFB4C5",
"N. c #ACB9C6",
"B. c #A9B1CE",
"V. c #E4DCD5",
"C. c #EAE5E1",
"Z. c #E7E8F1",
/* pixels */
"                                                            ",
"                                                            ",
"                                                            ",
"                                                            ",
"                                                            ",
"                                                            ",
"                                                            ",
"                    c                                       ",
"                  2 { +.} X.' [ `                           ",
"              A  .#.%.@.$.&.&.o.o.|                         ",
"                :.<.z.v.1.4.>...3.]                         ",
"                8 a.Z.n.8.5.5 7 9 e 9.                      ",
"                * ;.U s.j.E f.W N , 6.7.                    ",
"                  P Y V.m.,.l.T F     q                     ",
"                  + ! 2.k.h.i.y.i X                         ",
"                  % q.B.M.N.p.0.1                           ",
"                  g I y u x.w.0 <                           ",
"                O f J V C L z > .                           ",
"                o n b ; m G B 3 r.R                         ",
"                @ K v p c.b.x ( C.d.#                       ",
"                  a D Z =.-.l / *.4                         ",
"                  = j H M s h -                             ",
"                      & S k d $                             ",
"                      . ^ _ Q :                             ",
"                      u.g.t.) t                             ",
"                      e.~ 6 e w                             ",
"                                                            ",
"                                                            ",
"                                                            ",
"                                                            ",
"                                                            "
};
