/* XPM */
static char *_5652a5cf0dc4ea4e997e48d55387bd90OsFfHAE5GdSOmHo[] = {
/* columns rows colors chars-per-pixel */
"30 31 214 2 ",
"   c None",
".  c black",
"X  c #060000",
"o  c #140000",
"O  c #001002",
"+  c #00001E",
"@  c #001917",
"#  c #260000",
"$  c #3B1D00",
"%  c #360010",
"&  c #3E2B00",
"*  c #000028",
"=  c #000035",
"-  c #112F3E",
";  c #450000",
":  c #470004",
">  c #470504",
",  c #480000",
"<  c #4A0005",
"1  c #4D0D00",
"2  c #500000",
"3  c #5B0000",
"4  c #4C1103",
"5  c #5A1B00",
"6  c #6A0000",
"7  c #600D00",
"8  c #720000",
"9  c #730000",
"0  c #6D1F01",
"q  c #751700",
"w  c #4A2D00",
"e  c #5E2D19",
"r  c #6D2100",
"t  c #692800",
"y  c #6F2F00",
"u  c #733000",
"i  c #773406",
"p  c #783600",
"a  c #7B390F",
"s  c #443A3E",
"d  c #724915",
"f  c #534739",
"g  c #604622",
"h  c #7D462D",
"j  c #684630",
"k  c #7B513D",
"l  c #00005C",
"z  c #2A3C51",
"x  c #000067",
"c  c #0E2C7E",
"v  c #3D3F73",
"b  c #59004B",
"n  c #401666",
"m  c #5B5047",
"M  c #6F5D40",
"N  c #6F574B",
"B  c #7F5B41",
"V  c #7E5D51",
"C  c #68654A",
"Z  c #787154",
"A  c #4F427F",
"S  c #5C527F",
"D  c #705E70",
"F  c #75667B",
"G  c #7B647A",
"H  c #870000",
"J  c #890000",
"K  c #8E0200",
"L  c #961200",
"P  c #951900",
"I  c #961F00",
"U  c #AA0000",
"Y  c #BA0800",
"T  c #AE1B0C",
"R  c #8F2200",
"E  c #802B00",
"W  c #8A2900",
"Q  c #9F2400",
"!  c #9C2900",
"~  c #982E00",
"^  c #9E2E00",
"/  c #843B00",
"(  c #933100",
")  c #903600",
"_  c #AA2D06",
"`  c #A03000",
"'  c #AB3B00",
"]  c #C30000",
"[  c #D72801",
"{  c #C43105",
"}  c #C53B01",
"|  c #D13B00",
" . c #E83000",
".. c #8B4300",
"X. c #9B4605",
"o. c #865F00",
"O. c #905100",
"+. c #8F4819",
"@. c #AB4C04",
"#. c #B34500",
"$. c #A65300",
"%. c #AC5A0E",
"&. c #B45100",
"*. c #B45400",
"=. c #B55500",
"-. c #BB581C",
";. c #8F6100",
":. c #B56601",
">. c #B46602",
",. c #B46803",
"<. c #BB7A00",
"1. c #AA6210",
"2. c #AC631A",
"3. c #B0651F",
"4. c #894937",
"5. c #876439",
"6. c #B36F25",
"7. c #BA6E3F",
"8. c #D24B05",
"9. c #C65307",
"0. c #CD5700",
"q. c #C75800",
"w. c #C05C04",
"e. c #D45600",
"r. c #DB5406",
"t. c #D55F00",
"y. c #D35A04",
"u. c #DF5D01",
"i. c #D7590A",
"p. c #C16C00",
"a. c #D46600",
"s. c #D37B02",
"d. c #D67B00",
"f. c #D67F00",
"g. c #E26200",
"h. c #E16B0C",
"j. c #E17700",
"k. c #CB6136",
"l. c #C47C3F",
"z. c #8C3B59",
"x. c #885F4B",
"c. c #886540",
"v. c #8A6053",
"b. c #8D7350",
"n. c #A77C4E",
"m. c #A76F7A",
"M. c #CC7865",
"N. c #C18300",
"B. c #CA8700",
"V. c #DF8602",
"C. c #D59600",
"Z. c #F88000",
"A. c #FF8707",
"S. c #F18A05",
"D. c #E68217",
"F. c #F6B900",
"G. c #FDC700",
"H. c #FFCC00",
"J. c #F7CF0E",
"K. c #F9CB0B",
"L. c #E1D600",
"P. c #E9DD15",
"I. c #FCED00",
"U. c #FFED00",
"Y. c #F7F200",
"T. c yellow",
"R. c #F6E61A",
"E. c #FAFE12",
"W. c #9F8A6D",
"Q. c #A78962",
"!. c #A68C6F",
"~. c #B69268",
"^. c #BC9B6C",
"/. c #BE9D6F",
"(. c #B89978",
"). c #C1B35E",
"_. c #CE9162",
"`. c #E58572",
"'. c #D0BC73",
"]. c #D7BC76",
"[. c #C5C44D",
"{. c #00659E",
"}. c #0059A6",
"|. c #326FA4",
" X c #455E8A",
".X c #766484",
"XX c #4379BB",
"oX c #616AA8",
"OX c #816F88",
"+X c #91798D",
"@X c #5E8AC1",
"#X c #848084",
"$X c #B68B8A",
"%X c #A98F92",
"&X c #A69096",
"*X c #A9939C",
"=X c #A39C9C",
"-X c #BBA088",
";X c #B7A096",
":X c #9999A9",
">X c #9C9EB2",
",X c #BBA3A4",
"<X c #E7AE98",
"1X c #D8C08B",
"2X c #FEE489",
"3X c #FCC7A5",
"4X c #FFE3AB",
"5X c #FFE6A9",
"6X c #A5ABC2",
"7X c #B3B1C1",
"8X c #B2BCCE",
"9X c #B6C0CD",
"0X c #BEC5CD",
"qX c #C8D6EC",
/* pixels */
"                                                            ",
"                                                            ",
"                                                            ",
"                                                            ",
"                                                            ",
"                                                            ",
"                            o.;.                            ",
"                      ~ N.] C.L./ <.B.J                     ",
"                      ) V.K.R.E.P.J.d.R                     ",
"                      w.G.T.Y.I.H.I.F.8.                    ",
"                      K 6.[.2X'.].).3.H                     ",
"                      Z = oXqX X8X}.s C                     ",
"                      n.g - z . m * 5.c.                    ",
"                      o f >XD 1XS :X& #                     ",
"                      : x.*X;X5X&X%Xk %                     ",
"                    > c 7X(./.~.^.-X6Xb (                   ",
"                    W A @X0X$XU ,X9XXXz.^                   ",
"                    =.D.v |.m. .+X{.n t.X.                  ",
"                    Q Y t f.0.T a.d.E ` @.y                 ",
"                  P k.Q.M S.i.L h.A._ 7 &.p                 ",
"                  6 _.4X!.O.r.[ u.y.q h 7.i                 ",
"                    x.!.j . 4 w , 0 ! e l.+.                ",
"                    5 , $ -.9.j.#.e.} u r                   ",
"                      N ' | I { q.g.Z.:.                    ",
"                      V <X3Xv.X %.,.,...                    ",
"                        M.`.4.3 =.p.$.<                     ",
"                        8 8 ; 1 2.1.a                       ",
"                          @ O + #XG l                       ",
"                              x .X=XOX                      ",
"                                d b.F                       ",
"                                                            "
};
