/* XPM */
static char *_941867fca7e42cdf08b4b2f21eeb3b5T7pxWbnh3eUxTR24[] = {
/* columns rows colors chars-per-pixel */
"30 31 203 2 ",
"   c None",
".  c black",
"X  c #000001",
"o  c #00000D",
"O  c #1B0000",
"+  c #220800",
"@  c #370C04",
"#  c #3C1304",
"$  c #141C21",
"%  c #000030",
"&  c #580000",
"*  c #5C0000",
"=  c #5B1F00",
"-  c #511E0F",
";  c #6D0000",
":  c #771D00",
">  c #7E1B00",
",  c #4E2200",
"<  c #602300",
"1  c #672100",
"2  c #782401",
"3  c #792700",
"4  c #43002B",
"5  c #60102F",
"6  c #76252B",
"7  c #6F393C",
"8  c #763F3E",
"9  c #714031",
"0  c #00004B",
"q  c #00034C",
"w  c #000051",
"e  c #000059",
"r  c #050259",
"t  c #2F1358",
"y  c #3B3850",
"u  c #1F0863",
"i  c #000474",
"p  c #120770",
"a  c #3F1F73",
"s  c #103470",
"d  c #3C3673",
"f  c #441060",
"g  c #4F0073",
"h  c #570671",
"j  c #552867",
"k  c #5E3369",
"l  c #673868",
"z  c #773563",
"x  c #5C5758",
"c  c #73444C",
"v  c #705241",
"b  c #7C564F",
"n  c #72665F",
"m  c #544C79",
"M  c #74596C",
"N  c #6E6862",
"B  c #811A00",
"V  c #821B00",
"C  c #851D00",
"Z  c #AF1E02",
"A  c #8A2800",
"S  c #8B2800",
"D  c #8B220B",
"F  c #823700",
"G  c #AD2700",
"H  c #A72801",
"J  c #A42D00",
"K  c #A52C03",
"L  c #AC2A00",
"P  c #B32700",
"I  c #B72C00",
"U  c #B72E00",
"Y  c #B22F04",
"T  c #BC2B03",
"R  c #A83507",
"E  c #B83905",
"W  c #B7340F",
"Q  c #B31527",
"!  c #8B3B2A",
"~  c #C8210B",
"^  c #DB2B00",
"/  c #C63304",
"(  c #DE3B14",
")  c #E43700",
"_  c #EA3C07",
"`  c #944600",
"'  c #945C0B",
"]  c #BE4900",
"[  c #AC5000",
"{  c #AE5B01",
"}  c #9B6114",
"|  c #B56E00",
" . c #BC6B0A",
".. c #B86C1D",
"X. c #814226",
"o. c #805126",
"O. c #8F433B",
"+. c #AD572F",
"@. c #A66428",
"#. c #BC6B2E",
"$. c #A0603F",
"%. c #AE6F3A",
"&. c #D15619",
"*. c #E25102",
"=. c #EB5E03",
"-. c #CE750F",
";. c #D37F00",
":. c #C05030",
">. c #E44833",
",. c #E26D21",
"<. c #9E2F57",
"1. c #9A4A58",
"2. c #8C5F53",
"3. c #8E6051",
"4. c #A26247",
"5. c #AA6C45",
"6. c #995363",
"7. c #B7566B",
"8. c #877663",
"9. c #B37A66",
"0. c #D05D66",
"q. c #948700",
"w. c #A39001",
"e. c #A89201",
"r. c #AB9A03",
"t. c #E89103",
"y. c #FF9200",
"u. c #D6B20F",
"i. c #FFB900",
"p. c #FFBC0C",
"a. c #DBD906",
"s. c #DDD61A",
"d. c #E2CC05",
"f. c #FBCC00",
"g. c #EEDD00",
"h. c #F5D600",
"j. c #FFD300",
"k. c #FBDA05",
"l. c #FEE600",
"z. c #FFEA00",
"x. c #FEEC00",
"c. c #FFED00",
"v. c #FFEB0E",
"b. c yellow",
"n. c #FCFC0D",
"m. c #FFEA19",
"M. c #FFF411",
"N. c #9C975D",
"B. c #B18647",
"V. c #9E8B6E",
"C. c #9F8671",
"Z. c #AE8265",
"A. c #A78961",
"S. c #BE8F67",
"D. c #B39D79",
"F. c #C7875A",
"G. c #E99C55",
"H. c #D6B47A",
"J. c #000082",
"K. c #000085",
"L. c #052E83",
"P. c #3E3192",
"I. c #0851B0",
"U. c #435381",
"Y. c #755296",
"T. c #72778C",
"R. c #78748D",
"E. c #8B7A89",
"W. c #996390",
"Q. c #9B6B90",
"!. c #8E828E",
"~. c #9A958B",
"^. c #A7928C",
"/. c #A5968C",
"(. c #BA9D86",
"). c #BD9791",
"_. c #BDA782",
"`. c #BFA487",
"'. c #B3A79B",
"]. c #B4A49A",
"[. c #9C99A4",
"{. c #8B96B3",
"}. c #95A1BF",
"|. c #AAABA4",
" X c #C9A780",
".X c #C1B390",
"XX c #D4BC91",
"oX c #CFA5BA",
"OX c #E1C698",
"+X c #FAD498",
"@X c #D4CEA1",
"#X c #FFEDAF",
"$X c #A9B8D5",
"%X c #B0BDD9",
"&X c #CAB3C4",
"*X c #CEC8C5",
"=X c #D0CAC2",
"-X c #DCD3C7",
";X c #C8CFD5",
":X c #DDD9D6",
">X c #E0D8D2",
",X c #FEE9D4",
"<X c #FCF0D6",
/* pixels */
"                                                            ",
"                                                            ",
"                                                            ",
"                                                            ",
"                                                            ",
"                                                            ",
"                                                            ",
"                    H t.e.{ w.                              ",
"                | u.s.m.M.v.n.a.k.d.r.                      ",
"              *.p.z.l.h.f.x.b.x.i.j.g.q.                    ",
"                7.W.oX,X@XQ.~.6.1.N.x   I.                  ",
"                  T.;X*XE.K.J.0 w e % s L.                  ",
"                   .[ U.>XH.A.-XC.;.' X u p                 ",
"                  %.#.).<X+XG. Xb ..}                       ",
"                    X.S.`.(.Z.].'.N $                       ",
"                    M }.%X$X{.[.R.7 -                       ",
"                  <.P.g 0.&XY.!.m 5                         ",
"              8.O.&.,.L E >.( ! l 4                         ",
"          n OX#X.XB.y.~ # : I P I 2.v                       ",
"            _.XXV.+.=.T 3 Y W Z 8 :X=X3.                    ",
"                  * & < A ) _ ^ 6 |./.9                     ",
"                  D / J 1 > C J ` F ;                       ",
"                  V G 3 = X X R -.] V ,                     ",
"                c o.5.t @   + O X @.:.Q A                   ",
"            r $.4.a k q X   o y D.F.z h f                   ",
"                              d ^.9.j i                     ",
"                                                            ",
"                                                            ",
"                                                            ",
"                                                            ",
"                                                            "
};
