/* XPM */
static char *_6ccb1afaef0424ec438e4264ae12f552HhyNLGerPo6iWSX[] = {
/* columns rows colors chars-per-pixel */
"30 31 183 2 ",
"   c None",
".  c #000002",
"X  c #0D0100",
"o  c #050308",
"O  c #1A0000",
"+  c #120504",
"@  c #191000",
"#  c #00011B",
"$  c #2B0001",
"%  c #290B00",
"&  c #380002",
"*  c #322001",
"=  c #0D072A",
"-  c #001F24",
";  c #000035",
":  c #460000",
">  c #530000",
",  c #451700",
"<  c #551800",
"1  c #5E1B01",
"2  c #561712",
"3  c #720001",
"4  c #651200",
"5  c #7C1D00",
"6  c #5B2600",
"7  c #6B2201",
"8  c #7A2502",
"9  c #6B3000",
"0  c #793406",
"q  c #7A3511",
"w  c #4C0638",
"e  c #5C372A",
"r  c #723B34",
"t  c #7F411A",
"y  c #665600",
"u  c #7F6600",
"i  c #000243",
"p  c #0D0048",
"a  c #11004C",
"s  c #00005E",
"d  c #3D125F",
"f  c #2F1649",
"g  c #2A2A46",
"h  c #000065",
"j  c #00136A",
"k  c #001678",
"l  c #00247A",
"z  c #4F1951",
"x  c #4A174F",
"c  c #765949",
"v  c #7B485E",
"b  c #756349",
"n  c #684770",
"m  c #910003",
"M  c #850F04",
"N  c #AA0002",
"B  c #A70800",
"V  c #BB0200",
"C  c #B70601",
"Z  c #AD1A00",
"A  c #B91600",
"S  c #892C01",
"D  c #85220C",
"F  c #952A00",
"G  c #943400",
"H  c #AD3F02",
"J  c #B93701",
"K  c #B13D24",
"L  c #CF0000",
"P  c #D92C00",
"I  c #E63600",
"U  c #854301",
"Y  c #8C411A",
"T  c #AC5F07",
"R  c #AA6404",
"E  c #AE6707",
"W  c #B26B00",
"Q  c #BD7900",
"!  c #894E20",
"~  c #8E512C",
"^  c #884C39",
"/  c #8E523F",
"(  c #945727",
")  c #A45B32",
"_  c #9B6137",
"`  c #AF682E",
"'  c #AF6730",
"]  c #B06730",
"[  c #CC4F00",
"{  c #D94E00",
"}  c #D85504",
"|  c #CF481F",
" . c #EC4F0B",
".. c #C76D00",
"X. c #DD6702",
"o. c #DA7500",
"O. c #D97B05",
"+. c #EA6100",
"@. c #EA7709",
"#. c #E5702A",
"$. c #821F4D",
"%. c #853A64",
"&. c #C72E4E",
"*. c #BA5249",
"=. c #8B785D",
"-. c #8E517A",
";. c #924770",
":. c #987573",
">. c #82777C",
",. c #A2766F",
"<. c #CA6541",
"1. c #889500",
"2. c #B88600",
"3. c #AB9C00",
"4. c #C58500",
"5. c #DC8B00",
"6. c #D58300",
"7. c #E28604",
"8. c #F48207",
"9. c #ED9400",
"0. c #FC9B00",
"q. c #D3AF00",
"w. c #CCBB00",
"e. c #D3B200",
"r. c #C9A600",
"t. c #EFA700",
"y. c #F0B90E",
"u. c #FCA730",
"i. c #DBD600",
"p. c #CCC500",
"a. c #F7C707",
"s. c #FAD705",
"d. c #E5E100",
"f. c #F9EE00",
"g. c #FDFE01",
"h. c #F6F510",
"j. c #FCDC30",
"k. c #AC815D",
"l. c #989573",
"z. c #8F857A",
"x. c #B29B70",
"c. c #DE8E4A",
"v. c #DF8452",
"b. c #C88143",
"n. c #E79653",
"m. c #E9A455",
"M. c #F4A054",
"N. c #C18F76",
"B. c #D7A264",
"V. c #F5B978",
"C. c #DFC24A",
"Z. c #E6EE55",
"A. c #C7CA75",
"S. c #FEC377",
"D. c #000089",
"F. c #000094",
"G. c #00009E",
"H. c #002583",
"J. c #0F3083",
"K. c #393C85",
"L. c #000EA1",
"P. c #0018A2",
"I. c #1040A4",
"U. c #224CA5",
"Y. c #424698",
"T. c #7D779A",
"R. c #696D90",
"E. c #5C67A5",
"W. c #9C6D82",
"Q. c #7C8D8D",
"!. c #8E908C",
"~. c #B08882",
"^. c #BAAB9E",
"/. c #8984B6",
"(. c #AEB0AD",
"). c #A6A5BB",
"_. c #C9B185",
"`. c #F2BDB8",
"'. c #B9BED5",
"]. c #D2CFCC",
"[. c #D2D0CD",
"{. c #FDFBFC",
"}. c #F6F8F3",
/* pixels */
"                                                            ",
"                                                            ",
"                                                            ",
"                                                            ",
"                                                            ",
"                              3.u                           ",
"                  B r.e.Z y p.g.4.V e.e.C                   ",
"                  F 5.s.s.d.g.g.s.s.a.5.F                   ",
"                P @.y.f.g.g.h.h.g.s.a.a.O.4                 ",
"                S V @.C.Z.g.g.g.f.m.c.5.C 4                 ",
"                  x.b h :.j.A.A.u.;.h b l.                  ",
"                @ _.k.1.w./ k k / w.1.k._.%                 ",
"                  U : 2.t.4.i.i.4.t.2.: U                   ",
"                  O c :.W.N.S.S.N.W.:.c O                   ",
"                (.R.T.].}.{.{.{.{.}.[.T.n W                 ",
"            > *.`./.P.E.).'.'.'.'.).E.L.-.@.8               ",
"          R 7.J L &.%.H.G.F.F.F.F.L.J.$.| 8.7.U             ",
"          T 9.6.Y 5 A #.m.n.&.&.v.n.#.C G } } G             ",
"          q ) ` q D N [ O.7. .+.0.0.X.N F E R 0             ",
"          ` M.b.t Z ,.Q.!.n K @.8. .m r <.....0             ",
"          ( ] 7   . !.^.^.!.- 3 m D 8 e =._._.^             ",
"                  + , < 9 < 9 6.5.5.R $ _ V.V.~             ",
"                  % 1 3 $ : P [ { } H f d 5 8               ",
"                  6 C  .@.R , $ . O : w x 2                 ",
"                  < X.O.Q W *   @ x.B.) z                   ",
"                    W ! ; = o   X z.~.v i                   ",
"                    h H.Y.K.=   o i D.l X                   ",
"                    U.I.k j #       g                       ",
"                      J.p p #                               ",
"                                                            ",
"                                                            "
};
