/* XPM */
static char *result[] = {
/* columns rows colors chars-per-pixel */
"50 50 62 1 ",
"  c #200808",
". c #300810",
"X c #381010",
"o c #401010",
"O c #401810",
"+ c #481810",
"@ c #481818",
"# c #502010",
"$ c #502018",
"% c #582018",
"& c #602010",
"* c #682010",
"= c #602810",
"- c #602018",
"; c #682018",
": c #602818",
"> c #682818",
", c #702010",
"< c #782810",
"1 c #702018",
"2 c #702818",
"3 c #782818",
"4 c #603018",
"5 c #783010",
"6 c #703018",
"7 c #783018",
"8 c #783818",
"9 c #602820",
"0 c #683020",
"q c #703020",
"w c #783020",
"e c #783820",
"r c #883810",
"t c #803018",
"y c #883018",
"u c #803818",
"i c #883818",
"p c #903810",
"a c #903818",
"s c #983818",
"d c #803020",
"f c #803820",
"g c #883820",
"h c #903820",
"j c #884018",
"k c #984010",
"l c #904018",
"z c #984018",
"x c #A04018",
"c c #A84018",
"v c #A04818",
"b c #A84818",
"n c #B04818",
"m c #A85018",
"M c #B85018",
"N c #884020",
"B c #904020",
"V c #984020",
"C c #984820",
"Z c #A04820",
"A c #C05818",
"S c #C86018",
/* pixels */
"MMAv<&,xmmcxxt$ittytt2@%71$%uutttt%$637677t>+;-$%>",
"mMv**kmMbbxxxi$riyttt7$$7t6-:uit7t%-73667gt$O@-337",
"Mb,,vAmxxxvvvl%tiut7t7$$t7779>7ttt%27677t0$@;77766",
"A<,mAbxxVzxxzi#tayt7t7$$77777>;th7%666t7$$;7tt7676",
"t*xAmxxzzVbz51@2rytt77%$777777:7B2@6tt%@;7t7777767",
"*aMMvxVzVxxt&2#2ayt777%@7t77776:t:+73$$3tt76777777",
"5ASbxxVzlx5&2z$;atttt7$@7t7777u>3%@%@2t77777777777",
"zAAbxVVxxt&5mZ$2aytttt%@7t777ti7OoO$tit7tii7777777",
"bnZZVVZbi&:NCj@7sytttt%+77777777oo;tfy777uf7773>2:",
"ZZVVBVZN%::::>+7aytttt%+6227766-$3t77uttutt773%$$%",
"zzzllzj>:it222O7autttt%O2267t2%-7tt7thhhtyt72@$->7",
"zzzlVzt4illjj7o7ituttt=O27777:;tt7fttgfBfu7-O$2777",
"zzzzVi>8ljjii>Xtiutttt%O2726>;777tt77ggBg6-@:77777",
"VzlVl60Blajja:oaiiuttt%O2t>%:::7t77tthgt6$%6777777",
"VzVz2$7aalllj@Xtututtu$O76+=>>7t777t7i72$-77777t77",
"VVV7OO$%->>26#@tutttt2#+>@-t2777777tt2$%;773ttt7tt",
"Vxa%%7>:$#@#%$-:-2>%%+oXo%t77777722t2@$7t777ttttyy",
"Vz2:jxzlit7777t2:::-%$o +tt777777>22$:7it7ttttttt2",
"x7:uzaaaaaaaiiiiiaaaai=o3u777t777>$$:tyt777t7yt2%o",
"i6uzllaaaaiiiuiiiyutu7%:t7777t777$o:733tt7637t%%OX",
"$7xxzzzzaaiiiuuitttt7:;ut777tu66:O%7777773:%>%:7%:",
".:iilxxzllaiaiiuttt7:$7u7777tu6%@-23777672%$%;at$7",
"XO%;>277tiiiiuriiir7@:u7777tui;@>77tt77>>:+@3al>@y",
"O=t7>=::=#@>6>=:>27%+tt7777ui3@:737ttt733$+7iai$#y",
"o>xxziri6..:6:%@@oOo;y7t777t7$%773t7ttyy;+7att7@1i",
"o>zlaaazto$aziiu7%o#y77t777t%@2t77iutty7O>ait72#yy",
"O0laiiaa7o%lViuij6$7t7777772@:777tu77ta@$ayttt:#at",
"+2laaiia2O:lziuai:-ut777777$%7777t7773:Xtitty7@-it",
"+2laiiia2@2aliila%-u777777:$677t7776>>X#itttt7+;ii",
"O>aiiiaa7@7zVjral%#7777777$;ut777t637@.;itttt6@6ia",
"+=aiuiia2@7zaiaza%@777777>%3tt77tt7a7@X2ttttt>@uaa",
"@=iiuiip2$7aiilai%@777776::tttttttui::X7ttttu:$iii",
"@:iiurii7#7ii2aiy:$777776$2ttut7tti:-2+7tu7ti::iii",
"@:uiyiia7#7i72aii:%763770:7iuuut7tt@t6-ttttuu:0jgi",
"$-uiyyia7%7iiiaii:@76377>2uittuu7i:%a::7ttuii:6lNi",
"::tiyiiit$2iiiiia>$77770$6iuuut7ta#6a%:tuiuui>6jii",
"::tiyiiau%>iiiiaa6$7777%+7uttt77i2%ia%:iuuuii>7aii",
"@%tiyiiiu=:iaiiia6$7776+%itttt7tu$2ia%2iiiiii26iii",
"XO7iyiiut>:taiiiii$:fi:o7it7777t7-tih%2iiiiii66iii",
":$6iiiiuu7%6iiilal-$qB$@uu7t777t->iia:>iiiiii7:77u",
"u%:yiyuuu7:>taaaia2@>h$:t777t777@6iia>:iiiiiit%>62",
"t%:titutuu>2:iuihai%$e$7777777t3$7iiB6%aiiiiiu::69",
"y:%7auuuuu72%uuahhV6$%-777777tu:%iaaa7@iiiiiii2%66",
"i7$>auuyiyt>2uiiigB7$$2t7777ttt@%iaiauOtiiiiuit:6t",
"au%:aiiiiii22tiiiuii$@>u7wtuff>@;uuiai@6iiiiuui62i",
"yy>:tiiaiii7>7aiihhB2$-t7uffff>@%%wfii:%aiiiiiiu46",
"ia7:6iuihait66hBhgghh$%7uudt77>>%$wfua7OiiiiaBhi7:",
"tt7::tiiuiiit67BhhhhB0$6tuddff@6q%:qfauo7lgiljiii2",
"t7t627aifiiii67hBhhhBB::6uffdd@ef0@:eii$:liBlhgii7",
"ytt7>2izVBiii7wfhgggVBd$:0fff2$wwf:$>fg6$ighigguiu"
};
